<?xml version="1.0" encoding="utf-8"?>
<!-- Generator: Adobe Illustrator 24.3.0, SVG Export Plug-In . SVG Version: 6.00 Build 0)  -->
<svg version="1.1" id="Слой_1" xmlns="http://www.w3.org/2000/svg" xmlns:xlink="http://www.w3.org/1999/xlink" x="0px" y="0px"
	 viewBox="0 0 547.14 288.1" style="enable-background:new 0 0 547.14 288.1;" xml:space="preserve">
<style type="text/css">
	.st0{fill:none;}
</style>
<g>
	<rect class="st0" width="547.14" height="276.19"/>
	<path d="M159.88,69.04c0.85,0.91,1.25,1.95,1.2,3.12c-0.06,1.17-0.54,2.18-1.45,3.03c-17.32,15.61-33.95,32.03-49.9,49.26
		c-15.95,17.23-30.31,35.65-43.07,55.24c20.11,6.44,36.2,17.63,48.28,33.58c12.08,15.95,19.23,34.29,21.45,55.03
		c0.51,4.56,0.8,9.17,0.85,13.84c-0.11,1.88-0.83,3.15-2.14,3.8c-1.31,0.65-2.66,0.7-4.06,0.13c-1.4-0.57-2.18-1.79-2.35-3.67
		c0.51-6.27,0.54-12.5,0.09-18.71c-1.6-18.74-7.95-35.39-19.06-49.95c-11.11-14.56-25.75-24.6-43.92-30.12
		c-2.68,12.76-5.18,25.55-7.52,38.37c-0.11,0.57-0.41,1.03-0.9,1.37c-0.48,0.34-1.01,0.46-1.58,0.34c-0.63-0.12-1.1-0.4-1.41-0.86
		c-0.31-0.46-0.44-1-0.38-1.62c2.05-12.93,4.3-25.86,6.75-38.79c-11.79-2.45-23.39-2.11-34.78,1.03c-1.2,0.28-2.29,0.16-3.29-0.38
		c-1-0.54-1.67-1.41-2.01-2.61c-0.34-1.37-0.13-2.59,0.64-3.67c0.77-1.08,1.86-1.68,3.29-1.79c12.53-0.85,24.84,0.23,36.91,3.25
		c4.61-23.93,10.28-47.61,17-71.05c6.72-23.44,15.67-46.04,26.83-67.8c1.03-1.59,2.29-2.33,3.8-2.22c1.51,0.11,2.7,0.76,3.59,1.92
		c0.88,1.17,0.95,2.64,0.21,4.4c-10.6,19.43-19.31,39.69-26.15,60.8c-6.84,21.11-12.7,42.46-17.6,64.04
		c12.02-18.23,25.19-35.58,39.52-52.04c14.33-16.46,29.35-32.24,45.07-47.34c0.91-0.85,1.94-1.27,3.08-1.24
		C158.03,67.74,159.03,68.18,159.88,69.04z"/>
	<path d="M212.09,149.36c0.34-0.34,0.68-0.46,1.03-0.34c0.34,0.12,0.58,0.34,0.73,0.68c0.14,0.34,0.04,0.68-0.3,1.03
		c-4.27,4.1-8.97,7.61-14.1,10.51s-10.48,5.36-16.06,7.35c-11.56,4.1-23.5,5.47-35.8,4.1l0.09-0.09h-0.09v-0.08
		c-1.82,8.72-4.03,17.27-6.62,25.68c-2.59,8.4-6.28,16.36-11.07,23.88c-0.23,0.4-0.58,0.65-1.07,0.77
		c-0.48,0.11-0.93,0.06-1.32-0.17c-0.51-0.29-0.8-1.14-0.85-2.56c-0.06-1.42,0.01-3.02,0.21-4.79c0.2-1.77,0.38-3.3,0.56-4.61
		c0.11-0.68,0.2-1.2,0.26-1.54c2.45-13.96,7.26-27.06,14.44-39.31c1.2-6.55,2.51-13.07,3.93-19.57c0.46-1.42,1.28-2.25,2.48-2.48
		s2.26,0.03,3.2,0.77c0.94,0.74,1.27,1.88,0.98,3.42c-0.4,1.37-0.8,2.73-1.2,4.1c3.25-4.1,6.85-7.48,10.81-10.13
		c3.96-2.65,7.87-3.06,11.75-1.24c4.84,3.76,6.79,7.35,5.85,10.77c-0.94,3.42-3.38,6.4-7.31,8.93c-3.93,2.54-7.92,4.4-11.96,5.6
		c7.97,0.34,15.92-0.88,23.84-3.67c7.92-2.79,15.04-6.52,21.36-11.19C208.13,153.4,210.21,151.47,212.09,149.36z M130.83,212.59
		c3.7-8.37,6.41-17.09,8.12-26.15c0.23-1.2,0.46-2.39,0.68-3.59C135.19,192.37,132.25,202.28,130.83,212.59z M150.48,166.62
		c-0.11,0.11-0.14,0.23-0.09,0.34l0.17-0.26c0.51,0.4,1.08,0.8,1.71,1.2c1.77,0.17,3.59-0.06,5.47-0.68
		c0.57-0.17,1.17-0.31,1.79-0.43c2.79-0.74,5.88-2.08,9.27-4.02c3.39-1.94,5.68-4.19,6.88-6.75c1.2-2.56-0.09-5.21-3.85-7.95
		c-1.94-0.74-3.97-0.54-6.11,0.6c-2.14,1.14-4.14,2.64-6.02,4.49c-1.88,1.85-3.42,3.46-4.61,4.83c-1.99,2.51-3.9,5.1-5.73,7.78
		c0.17,0.06,0.34,0.14,0.51,0.26C150.05,166.25,150.25,166.45,150.48,166.62z M150.57,166.7c0-0.06-0.03-0.08-0.09-0.08l0.09-0.09
		V166.7z"/>
	<path d="M271.99,149.53c0.23-0.4,0.54-0.57,0.94-0.51c0.4,0.06,0.71,0.24,0.94,0.56c0.23,0.31,0.23,0.67,0,1.07
		c-1.65,2.34-3.56,4.4-5.73,6.2c-2.17,1.79-4.42,3.49-6.75,5.08c-0.4,0.29-0.77,0.54-1.11,0.77c-5.64,3.88-11.08,6.85-16.32,8.93
		c-5.24,2.08-9.78,2.48-13.63,1.2c-3.84-1.28-6.54-5.08-8.07-11.41c-3.76,5.58-7.81,10.97-12.13,16.15
		c-2.28,2.28-4.63,2.92-7.05,1.92c-2.42-1-3.38-3.15-2.86-6.45c2.34-10.37,7.21-19.37,14.61-27c2.39-2.45,5.33-4.41,8.8-5.9
		c1.37-0.51,2.49-0.34,3.38,0.51c0.88,0.85,1.29,1.89,1.24,3.12c-0.06,1.23-0.77,2.12-2.14,2.69c-4.27,2.17-7.85,5.23-10.72,9.19
		c-2.88,3.96-5.11,8.25-6.71,12.86c4.67-6.04,9.03-12.3,13.07-18.8c0.63-0.97,1.47-1.48,2.52-1.54c1.05-0.06,1.96,0.26,2.73,0.94
		c0.77,0.68,1.12,1.6,1.07,2.73c-1.14,3.48-1.44,7.05-0.9,10.72c0.54,3.67,2.69,6.25,6.45,7.73c5.64-0.06,11.34-1.65,17.09-4.79
		c5.75-3.13,10.88-6.44,15.38-9.91C268.43,153.89,270.4,151.87,271.99,149.53z"/>
	<path d="M326.51,150.3c0.28-0.28,0.58-0.37,0.9-0.26c0.31,0.12,0.53,0.31,0.64,0.6c0.11,0.29,0.06,0.6-0.17,0.94
		c-4.67,4.5-10.51,9.43-17.52,14.78c-7.01,5.36-14.34,9.91-22,13.67c-7.66,3.76-14.77,5.5-21.32,5.21c-4.5-0.91-6.93-3.29-7.31-7.13
		c-0.37-3.84,0.53-8.22,2.69-13.12c2.17-4.9,4.79-9.41,7.86-13.54c3.08-4.13,5.78-6.96,8.12-8.5c1.54-1.14,3.32-1.94,5.34-2.39
		c2.02-0.46,3.94-0.11,5.77,1.03c1.14,0.85,1.62,1.87,1.45,3.03c-0.17,1.17-0.76,2.08-1.75,2.73c-1,0.66-2.12,0.67-3.38,0.04
		c-2.79,0.68-5.51,2.51-8.16,5.47c-2.65,2.96-5,6.27-7.05,9.91c-2.05,3.65-3.56,6.78-4.53,9.4c-0.17,0.57-0.34,1.17-0.51,1.79
		c-0.68,1.88-1.05,3.72-1.11,5.51c-0.06,1.79,0.94,2.86,2.99,3.21c6.09,0.4,11.96-0.67,17.6-3.21c5.64-2.53,10.99-5.43,16.06-8.67
		c0.51-0.34,1-0.65,1.45-0.94c6.55-4.21,12.7-8.91,18.46-14.1C322.97,154.06,324.8,152.24,326.51,150.3z"/>
	<path d="M471.17,149.36c0.17,0.17,0.26,0.38,0.26,0.64c0,0.26-0.09,0.5-0.26,0.73c-2.56,2.28-5.3,4.27-8.2,5.98
		c-5.93,3.42-12.28,5.61-19.06,6.58c-1.94,0.29-3.73,0.26-5.38-0.08c-1.65-0.34-3.11-1.31-4.36-2.91c-1.14-1.37-2.14-2.76-2.99-4.19
		c-0.12-0.23-0.23-0.46-0.34-0.68c-0.57-1.03-1.25-2.01-2.05-2.95c-0.8-0.94-1.77-1.44-2.91-1.5c-1.88,1.25-3.48,2.88-4.79,4.87
		c-0.29,0.4-0.57,0.8-0.85,1.2c-0.91,1.2-1.82,2.42-2.73,3.67c-2,3.08-4.33,5.9-7.01,8.46c-2.11,1.14-3.75,0.8-4.91-1.03
		c-1.17-1.82-2-4.44-2.48-7.86c-0.48-3.42-0.73-6.98-0.73-10.68c-3.19,4.16-6.32,8.37-9.4,12.65c-2.73,3.76-5.5,7.52-8.29,11.28
		c-0.46,0.63-0.91,1.23-1.37,1.79c-1.54,2.17-3.19,4.25-4.96,6.24c-0.06,0.06-0.12,0.11-0.17,0.17c-0.17,0.11-0.33,0.24-0.47,0.38
		c-0.14,0.14-0.36,0.24-0.64,0.3c-0.4,0.11-0.8,0.06-1.2-0.17c-0.4-0.23-0.63-0.54-0.68-0.94c-0.06-0.97,0.06-1.88,0.34-2.73
		c0.06-0.17,0.09-0.34,0.09-0.51c1.08-3.47,2.39-6.89,3.93-10.25c1.82-3.76,3.25-7.66,4.27-11.71c0.34-1.65,0.28-3.08-0.17-4.27
		c-1.14-1.88-4.2-3.32-9.19-4.32c-4.99-1-10.51-1.65-16.58-1.96c-6.07-0.31-11.27-0.41-15.59-0.3c2.22,3.53,2.85,8,1.88,13.42
		c-0.97,5.41-2.62,9.54-4.96,12.39c-2.56,3.42-5.95,5.61-10.17,6.58c-3.19,0-5.48-1.1-6.88-3.29c-1.4-2.19-2.12-4.8-2.18-7.82
		c-0.06-3.02,0.29-5.7,1.03-8.03c0.97-3.59,2.59-6.88,4.87-9.87c2.28-2.99,5.1-5.31,8.46-6.96c1.65-0.63,2.93-0.4,3.84,0.68
		l-0.08,0.08h0.08c0.06,0,0.11,0,0.17,0c0.91,0,1.94,0,3.08,0c4.5-0.17,9.9-0.18,16.19-0.04c6.29,0.14,12.18,0.77,17.65,1.88
		c5.47,1.11,9.26,3.06,11.37,5.85c1.03,1.77,1.41,3.82,1.15,6.15c-0.26,2.34-0.81,4.67-1.67,7.01c0.8-1.37,1.59-2.73,2.39-4.1
		c4.79-8.37,9.86-16.58,15.21-24.61c0.97-1.14,2.06-1.68,3.29-1.62c1.22,0.06,2.25,0.53,3.08,1.41c0.83,0.88,1.15,2.07,0.98,3.55
		c-0.74,3.25-1.24,6.89-1.5,10.94c-0.26,4.04-0.13,7.92,0.38,11.62c0.51-0.57,1.03-1.2,1.54-1.88c1.94-2.51,4.03-4.93,6.28-7.26
		c2.25-2.33,4.43-3.86,6.54-4.57c2.11-0.71,3.96,0.1,5.55,2.44c0.97,1.99,1.99,3.96,3.08,5.9c0.06,0.06,0.11,0.14,0.17,0.26
		c1.03,2.11,2.36,3.9,4.02,5.38c1.37,0.91,3.05,1.31,5.04,1.2c1.99-0.11,3.85-0.37,5.55-0.77c0.28-0.06,0.57-0.11,0.85-0.17
		c8.15-1.94,15.24-5.81,21.28-11.62c0.17-0.17,0.38-0.26,0.64-0.26C470.79,149.1,471,149.19,471.17,149.36z M328.64,173.71
		c4.21-0.97,7.36-3.36,9.44-7.18c2.08-3.82,3.17-7.8,3.29-11.96c0.06-1.48-0.04-3.02-0.3-4.61c-0.26-1.59-0.93-2.88-2.01-3.84
		c-0.29,0.68-0.85,1.25-1.71,1.71c-3.13,1.65-5.67,3.97-7.61,6.96c-1.94,2.99-3.16,6.22-3.67,9.7c-0.17,0.91-0.26,2.07-0.26,3.46
		c0,1.4,0.2,2.65,0.6,3.76C326.82,172.81,327.56,173.48,328.64,173.71z M338.21,142.35c0.06-0.06,0.1-0.07,0.13-0.04
		c0.03,0.03,0.04,0.07,0.04,0.13C338.33,142.38,338.27,142.35,338.21,142.35z"/>
	<path d="M527.91,149.53c0.23-0.4,0.54-0.57,0.94-0.51c0.4,0.06,0.71,0.24,0.94,0.56c0.23,0.31,0.23,0.67,0,1.07
		c-1.65,2.34-3.56,4.4-5.72,6.2c-2.17,1.79-4.42,3.49-6.75,5.08c-0.4,0.29-0.77,0.54-1.11,0.77c-5.64,3.88-11.08,6.85-16.32,8.93
		c-5.24,2.08-9.78,2.48-13.63,1.2c-3.84-1.28-6.54-5.08-8.08-11.41c-3.76,5.58-7.8,10.97-12.13,16.15
		c-2.28,2.28-4.63,2.92-7.05,1.92c-2.42-1-3.38-3.15-2.86-6.45c2.34-10.37,7.21-19.37,14.61-27c2.39-2.45,5.33-4.41,8.8-5.9
		c1.37-0.51,2.49-0.34,3.38,0.51c0.88,0.85,1.29,1.89,1.24,3.12c-0.06,1.23-0.77,2.12-2.14,2.69c-4.27,2.17-7.85,5.23-10.72,9.19
		c-2.88,3.96-5.11,8.25-6.71,12.86c4.67-6.04,9.03-12.3,13.07-18.8c0.63-0.97,1.47-1.48,2.52-1.54c1.05-0.06,1.96,0.26,2.73,0.94
		c0.77,0.68,1.12,1.6,1.07,2.73c-1.14,3.48-1.44,7.05-0.9,10.72c0.54,3.67,2.69,6.25,6.45,7.73c5.64-0.06,11.33-1.65,17.09-4.79
		c5.75-3.13,10.88-6.44,15.38-9.91C524.35,153.89,526.32,151.87,527.91,149.53z"/>
</g>
<g>
</g>
<g>
</g>
<g>
</g>
<g>
</g>
<g>
</g>
<g>
</g>
</svg>
